<svg id="Capa_1" enable-background="new 0 0 497.91 497.91" height="512" viewBox="0 0 497.91 497.91" width="512" xmlns="http://www.w3.org/2000/svg"><g><path d="m214.771 95.07c-.718-3.763-4.008-6.485-7.839-6.485h-25.042c-3.831 0-7.121 2.722-7.839 6.485l-7.158 37.524 6.282 25.275h43.595l5.161-25.275z" fill="#f79595"/><path d="m166.89 230.821h-50.32c-4.23 0-8.17 2.19-10.4 5.78l-44.53 71.52-16.772 21.602h136.842l1.365-89.12z" fill="#a6e7f0"/><path d="m72.29 308.121-27.422 21.602v63.476l27.422-3.902v12.414h146.12l1.16-93.59z" fill="#f9f3f1"/><path d="m72.29 308.121v93.59h-63.37v-23.28-46.41c0-6.22 4.23-11.65 10.26-13.18l42.46-10.72z" fill="#f3eae6"/><g><g id="XMLID_861_"><g><g id="XMLID_860_"><g><path d="m220.53 230.821-.96 77.3h-52.68v-77.3z" fill="#6bd9e7"/></g></g></g></g><g><path d="m497.91 387.421v14.29h-301.38v-19.43-169.284c0-6.161-4.995-11.156-11.156-11.156h-53.024c-5.562 0-10.07-4.508-10.07-10.07v-49.11c0-5.562 4.508-10.07 10.07-10.07h131.92 212.91 6.63c7.787 0 14.1 6.313 14.1 14.1z" fill="#f9f3f1"/></g><path d="m196.53 401.711h36.582v-15.988-194.395c0-11.07-8.974-20.045-20.045-20.045h-44.135c-5.562 0-10.07-4.508-10.07-10.07v-28.622h-26.512c-5.562 0-10.07 4.508-10.07 10.07v49.11c0 5.562 4.509 10.07 10.07 10.07h53.023c6.161 0 11.156 4.995 11.156 11.156v169.284 19.43z" fill="#f3eae6"/><g><path d="m163.191 344.723h-8.658c-4.142 0-7.5-3.357-7.5-7.5s3.358-7.5 7.5-7.5h8.658c4.142 0 7.5 3.357 7.5 7.5s-3.358 7.5-7.5 7.5z" fill="#f3eae6"/></g><path d="m196.532 293.098h301.377v44.125h-301.377z" fill="#f79595"/><path d="m196.532 293.098h36.58v44.125h-36.58z" fill="#f37c7c"/><path d="m370.725 229.049c53.186 0 96.456-43.27 96.456-96.456 0 0 0-.001 0-.002h-192.912v.002c0 53.186 43.27 96.456 96.456 96.456z" fill="#f3eae6"/><circle cx="370.725" cy="132.593" fill="#f79595" r="76.456"/><path d="m324.608 132.593c0-37.031 26.36-67.913 61.318-74.951-4.904-.987-10.006-1.505-15.201-1.505-42.225 0-76.456 34.23-76.456 76.456s34.23 76.456 76.456 76.456c5.194 0 10.335-.531 15.238-1.519-34.957-7.037-61.355-37.906-61.355-74.937z" fill="#f37c7c"/><path d="m408.189 115.365h-20.235v-20.235c0-2.142-1.736-3.879-3.878-3.879h-26.699c-2.142 0-3.879 1.737-3.879 3.879v20.235h-20.235c-2.142 0-3.879 1.736-3.879 3.879v26.699c0 2.142 1.737 3.878 3.879 3.878h20.235v20.235c0 2.142 1.736 3.879 3.879 3.879h26.699c2.142 0 3.878-1.737 3.878-3.879v-20.235h20.235c2.142 0 3.879-1.737 3.879-3.878v-26.699c-.001-2.143-1.737-3.879-3.879-3.879z" fill="#faf7f7"/></g><g><path d="m497.91 387.421v16.01c0 7.17-5.81 12.98-12.98 12.98h-469.3c-8.63 0-15.63-6.99-15.63-15.62v-6.73c0-8.64 7-15.63 15.63-15.63h40.9 28.94v8.99h30.79z" fill="#e1d3ce"/></g><circle cx="81.443" cy="405.198" fill="#9e9797" r="36.575"/><circle cx="364.489" cy="405.198" fill="#9e9797" r="36.575"/><g fill="#766e6e"><path d="m71.332 405.198c0-15.532 9.706-28.796 23.363-34.1-4.105-1.594-8.584-2.475-13.252-2.475-20.2 0-36.575 16.375-36.575 36.575s16.375 36.575 36.575 36.575c4.668 0 9.148-.887 13.252-2.481-13.657-5.305-23.363-18.562-23.363-34.094z"/><path d="m354.378 405.198c0-15.532 9.705-28.793 23.362-34.097-4.105-1.594-8.583-2.478-13.251-2.478-20.2 0-36.575 16.375-36.575 36.575s16.375 36.575 36.575 36.575c4.668 0 9.146-.885 13.251-2.48-13.657-5.304-23.362-18.563-23.362-34.095z"/></g></g></svg>